#!OML:ASF E:/inclinewalkrobotboard/Project1/Captureday1/Session1/subject1.ASF
:FULLY-SPECIFIED
:DEGREES
288
root 0 0 0 76.31431887838706 -27.4258283730164 -45.45495635879199
lowerback -11.189849266055218 7.863110799165989 9.566437215466344
upperback -20.51374540252106 10.074329007396388 2.957064246221393
thorax -15.451892538406746 3.970145634021277 -1.7134911970450322
lowerneck -7.548192836300741 9.771100897758116 5.411951482632826
upperneck 11.715608900534493 11.678496676916906 7.28755965473994
head 4.807551014955382 6.2665900811810475 2.076911336854355
rclavicle 6.094013195248134E-15 -3.3958289603988844E-15
rhumerus 108.61102223733704 -24.89807592961197 -115.13710105672553
rradius 0.7804246528069925
rwrist 69.66949571965097
rhand 13.765236219113277 -12.617071946727537
rfingers 7.125020000000017
rthumb 38.759808250119846 -38.50275621279778
lclavicle -6.67732052480533E-16 1.5384309106840312E-15
lhumerus -0.21372892288863454 25.04646044746028 1.8021725481852613
lradius 9.23824202226196
lwrist -41.490975201642684
lhand 12.076025413207596 36.71340099190929
lfingers 7.125020000000047
lthumb 37.18480136508206 63.81158399144223
rfemur 183.04473924312606 -219.78353568039182 -192.10300554712114
rtibia 67.28991296119027
rfoot -23.178220838030715 -9.809183686322056
rtoes 49.9380021214637
lfemur -109.58501357179634 35.77900390417599 -24.21193831267811
ltibia 68.3367890017074
lfoot -38.198279086940744 35.57012164710093
ltoes 38.86568735493684
289
root 0 0 0 76.3143185101711 -27.425830053108832 -45.4549581455105
lowerback -11.189846268472216 7.8631110808021205 9.566437621193703
upperback -20.513744105247014 10.074329342593106 2.9570633863065576
thorax -15.451892771469826 3.97014569174007 -1.7134924395888245
lowerneck -7.548195067914836 9.77110110108869 5.4119515691562246
upperneck 11.715606937997839 11.678496942628746 7.287559464702949
head 4.807550688153245 6.266590228258827 2.076911320979391
rclavicle 6.094004089035124E-15 -3.3958460322916655E-15
rhumerus 108.61136606078149 -24.898171893469797 -115.13734795012016
rradius 0.780416817719793
rwrist 69.66958839013071
rhand 13.765104824180188 -12.617017337424008
rfingers 7.125020000000017
rthumb 38.7596841894503 -38.50272727484817
lclavicle -6.677454192817097E-16 1.538422421862307E-15
lhumerus -0.21366406477128486 25.046463792818475 1.802158396365222
lradius 9.238243636405993
lwrist -41.49096781982098
lhand 12.076018309986914 36.713403344086835
lfingers 7.125020000000047
lthumb 37.18479451279668 63.811587243015666
rfemur 183.04476910611157 -219.78354811507285 -192.1030191313668
rtibia 67.28992154006568
rfoot -23.178186611327003 -9.809164870744091
rtoes 49.93799238839662
lfemur -109.58498786240773 35.77900210900087 -24.211923172086237
ltibia 68.3367606901127
lfoot -38.198314084407244 35.570116695819294
ltoes 38.865691540211834
290
root 0 0 0 76.31431816350593 -27.425831628091068 -45.45495980700151
lowerback -11.189843470926412 7.863111343314486 9.566437996199598
upperback -20.513742893134197 10.074329654870976 2.9570625822095997
thorax -15.451892987679976 3.9701457456114637 -1.71349359888882
lowerneck -7.548197152479517 9.771101290708964 5.4119516503741885
upperneck 11.715605107806551 11.678497190288617 7.287559286696386
head 4.807550383854871 6.266590365406045 2.076911306007534
rclavicle 6.0939955522285944E-15 -3.395861951945285E-15
rhumerus 108.61168639593168 -24.89826131805531 -115.13757769111669
rradius 0.7804096295655469
rwrist 69.66967454627317
rhand 13.764982467347217 -12.61696649148748
rfingers 7.125020000000017
rthumb 38.75956866161596 -38.50270033469083
lclavicle -6.677578918200812E-16 1.5384144775397466E-15
lhumerus -0.2136036296927486 25.046466958861405 1.8021452552736932
lradius 9.238245131192915
lwrist -41.49096095306207
lhand 12.0760116330578 36.713405511648276
lfingers 7.125020000000047
lthumb 37.184788072250626 63.81159025741189
rfemur 183.04479704059378 -219.78355957735863 -192.10303165591404
rtibia 67.28992978720257
rfoot -23.178153838745676 -9.809147694469985
rtoes 49.93798309669917
lfemur -109.58496363209775 35.77900039343337 -24.211908967234034
ltibia 68.33673395976835
lfoot -38.19834700382621 35.5701120811396
ltoes 38.86569552674035
291
root 0 0 0 76.31431783746035 -27.42583310354206 -45.454961351835834
lowerback -11.189840861011664 7.863111587933327 9.566438342878529
upperback -20.513741761090074 10.074329945725232 2.9570618306789207
thorax -15.451893188256808 3.9701457958734903 -1.7134946801513946
lowerneck -7.548199098863492 9.771101467488236 5.411951726552898
upperneck 11.715603401567522 11.67849742105906 7.287559120061536
head 4.807550100571299 6.266590493254106 2.076911291903751
rclavicle 6.0939875546624905E-15 -3.3958767925584937E-15
rhumerus 108.61198477249346 -24.898344627093064 -115.13779143425707
rradius 0.7804030315715629
rwrist 69.66975463639295
rhand 13.764868551887552 -12.616919159533582
rfingers 7.125020000000017
rthumb 38.75946110335003 -38.50267525947873
lclavicle -6.677695258577074E-16 1.5384070468981587E-15
lhumerus -0.21354733061049025 25.04646995081644 1.8021330533267843
lradius 9.238246515586738
lwrist -41.490954566409854
lhand 12.076005362383533 36.7134075097529
lfingers 7.125020000000047
lthumb 37.18478202401548 63.811593052049616
rfemur 183.0448231575449 -219.78357014668848 -192.10304320703773
rtibia 67.28993769087077
rfoot -23.17812254145978 -9.809132004347079
rtoes 49.937974246923886
lfemur -109.58494082087196 35.77899875792766 -24.21189565009964
ltibia 68.33670875392738
lfoot -38.198377939541025 35.570107781357095
ltoes 38.865699316044555
292
root 0 0 0 76.31431753109294 -27.425834484887375 -45.454962788024055
lowerback -11.189838426964675 7.863111815818764 9.566438663430311
upperback -20.513740704258694 10.074330216562975 2.9570611286010706
thorax -15.451893374331538 3.970145842751932 -1.713495688306832
lowerneck -7.548200915512163 9.771101632248001 5.4119517979538205
upperneck 11.715601811349297 11.678497636036182 7.287558964161196
head 4.8075498369041885 6.266590612399456 2.0769112786317923
rclavicle 6.093980066990049E-15 -3.3958906232862422E-15
rhumerus 108.61226263036752 -24.89842221972719 -115.137990261152
rradius 0.780396972311113
rwrist 69.66982907917703
rhand 13.764762517221673 -12.616875107408491
rfingers 7.125020000000017
rthumb 38.75936098549244 -38.5026519245404
lclavicle -6.677803742238361E-16 1.5384001002902966E-15
lhumerus -0.2134948971944084 25.046472774490965 1.8021217239349738
lradius 9.238247797861472
lwrist -41.49094862715457
lhand 12.075999478041728 36.713409352238884
lfingers 7.125020000000047
lthumb 37.18477634878812 63.81159564305375
rfemur 183.04484756343297 -219.78357989562332 -192.10305386357464
rtibia 67.289945244612
rfoot -23.178092723468136 -9.809117662592284
rtoes 49.93796583556302
lfemur -109.58491936726404 35.778997202136196 -24.21188317370467
ltibia 68.33668501282033
lfoot -38.198406985991284 35.57010377601118
ltoes 38.865702911126895
293
root 0 0 0 76.31431724346226 -27.42583577737925 -45.45496412304962
lowerback -11.18983615764999 7.863112028063512 9.566438959876796
upperback -20.513739718019885 10.074330468707064 2.957060473002766
thorax -15.451893546953453 3.9701458864605925 -1.7134966280168724
lowerneck -7.5482026104512645 9.771101785763568 5.4119518648322344
upperneck 11.715600329666655 11.678497836252244 7.287558818381351
head 4.807549591541383 6.266590723404793 2.076911266154748
rclavicle 6.093973060792872E-15 -3.3959035093777844E-15
rhumerus 108.6125213235718 -24.898494471549927 -115.13817518445155
rradius 0.7803914051629306
rwrist 69.66989826548351
rhand 13.764663837168573 -12.61683411543388
rfingers 7.125020000000017
rthumb 38.759267811341914 -38.502630212965464
lclavicle -6.677904868910641E-16 1.538393609285971E-15
lhumerus -0.21344607511808533 25.046475436111717 1.8021112051638895
lradius 9.238248985656252
lwrist -41.490943104705
lhand 12.075993960381355 36.71341105174677
lfingers 7.125020000000047
lthumb 37.184771027540116 63.81159804535329
rfemur 183.0448703601115 -219.78358889048366 -192.10306369761042
rtibia 67.28995244631054
rfoot -23.17806437477542 -9.80910454514792
rtoes 49.93795785584035
lfemur -109.58489920916162 35.77899572506301 -24.21187149233945
ltibia 68.33666267475596
lfoot -38.19843423684917 35.57010004583571
ltoes 38.86570631616604
294
root 0 0 0 76.31431697363547 -27.425836986082096 -45.454965363900655
lowerback -11.18983404254215 7.863112225695735 9.566439234077116
upperback -20.51373879798647 10.074330703400056 2.957059861051263
thorax -15.451893707095804 3.9701459272016253 -1.7134975036832518
lowerneck -7.5482041912935705 9.771101928765752 5.411951927436123
upperneck 11.715598949464079 11.67849802267842 7.287558682132338
head 4.8075493632525115 6.266590826800323 2.076911254435501
rclavicle 6.093966508661842E-15 -3.3959155123235095E-15
rhumerus 108.61276212419759 -24.898561735648403 -115.13834715168991
rradius 0.7803862878289394
rwrist 69.66996256005237
rhand 13.764572018216505 -12.61679597766347
rfingers 7.125020000000017
rthumb 38.75918111502579 -38.50261001519821
lclavicle -6.677999110626638E-16 1.538387546698793E-15
lhumerus -0.21340062533960413 25.046477942190528 1.8021014394175623
lradius 9.23825008602584
lwrist -41.49093797046582
lhand 12.075988790147797 36.71341261983049
lfingers 7.125020000000047
lthumb 37.18476604163658 63.81160027277153
rfemur 183.04489164477175 -219.78359719192406 -192.10307277509804
rtibia 67.28995929739895
rfoot -23.178037474102055 -9.8090925402226
rtoes 49.937950298383825
lfemur -109.58488028448335 35.77899432519389 -24.21186056173464
ltibia 68.33664167703321
lfoot -38.19845978432447 35.57009657270791
ltoes 38.86570953625945
295
root 0 0 0 76.31431672069496 -27.42583811586227 -45.45496651710003
lowerback -11.189832071705721 7.8631124096819285 9.56643948774149
upperback -20.513737939999928 10.074330921808093 2.9570592900534125
thorax -15.451893855661378 3.9701459651659032 -1.7134983194569626
lowerneck -7.548205665248048 9.771102061942669 5.411951986005308
upperneck 11.715597664098501 11.678498196227501 7.287558554849563
head 4.80754915088471 6.266590923085131 2.076911243437098
rclavicle 6.0939603842532075E-15 -3.39592669000839E-15
rhumerus 108.61298622635978 -24.898624343656984 -115.13850704899352
rradius 0.7803815819034341
rwrist 69.67002230313005
rhand 13.764486597824813 -12.6167605011559
rfingers 7.125020000000017
rthumb 38.75910045989917 -38.50259122864155
lclavicle -6.678086912685074E-16 1.538381886596596E-15
lhumerus -0.21335832337990013 25.04648029941263 1.8020923731415905
lradius 9.238251105486842
lwrist -41.49093319771978
lhand 12.075983948581055 36.71341406705743
lfingers 7.125020000000047
lthumb 37.184761372929444 63.811602338109395
rfemur 183.0449115099454 -219.7836048554513 -192.1030811564156
rtibia 67.28996580218099
rfoot -23.178011991187674 -9.809081546995408
rtoes 49.93794315179551
lfemur -109.58486253172867 35.778993000607024 -24.211850339187972
ltibia 68.33662195669146
lfoot -38.19848371861299 35.57009333959658
ltoes 38.86571257720562
